<svg width="221" height="175" viewBox="0 0 221 175" fill="none" xmlns="http://www.w3.org/2000/svg">
<path d="M11.9982 77.677L-2.88117e-05 77.8806L0.825969 101.866L12.8242 101.663L12.4112 89.6699L11.9982 77.677ZM209.017 98.3337C215.643 98.2213 220.83 92.7607 220.602 86.1372C220.374 79.5137 214.817 74.2355 208.191 74.3479L208.604 86.3408L209.017 98.3337ZM142.546 11.9929L142.133 2.53189e-05L118.136 0.407211L118.549 12.4001L130.548 12.1965L142.546 11.9929ZM202.436 96.2217C208.363 99.2946 215.577 97.0282 218.55 91.1595C221.523 85.2909 219.128 78.0424 213.202 74.9695L207.819 85.5956L202.436 96.2217ZM123.717 162.491L124.13 174.484L148.127 174.077L147.714 162.084L135.716 162.288L123.717 162.491ZM12.4112 89.6699L12.8242 101.663L208.258 98.3466L207.845 86.3537L207.432 74.3608L11.9982 77.677L12.4112 89.6699ZM207.845 86.3537L208.258 98.3466L209.017 98.3337L208.604 86.3408L208.191 74.3479L207.432 74.3608L207.845 86.3537ZM130.548 12.1965L118.549 12.4001C118.985 25.0519 126.172 36.5456 134.074 45.7174C142.225 55.1788 152.666 63.9199 162.612 71.2383C172.631 78.6101 182.55 84.8312 189.929 89.1948C193.631 91.3834 196.721 93.121 198.901 94.3194C199.991 94.919 200.856 95.3845 201.457 95.705C201.758 95.8653 201.993 95.9894 202.158 96.076C202.24 96.1193 202.305 96.1532 202.351 96.1775C202.375 96.1897 202.394 96.1995 202.408 96.2068C202.415 96.2105 202.421 96.2136 202.426 96.2161C202.428 96.2173 202.431 96.2187 202.432 96.2194C202.434 96.2206 202.436 96.2217 207.819 85.5956C213.202 74.9695 213.203 74.9703 213.204 74.971C213.204 74.971 213.205 74.9715 213.206 74.9715C213.206 74.9716 213.205 74.9711 213.203 74.97C213.198 74.9678 213.19 74.9632 213.176 74.9563C213.15 74.9424 213.105 74.9192 213.044 74.8868C212.92 74.822 212.728 74.7204 212.471 74.5834C211.957 74.3093 211.185 73.894 210.193 73.3483C208.206 72.2563 205.342 70.6461 201.89 68.6052C194.964 64.5098 185.784 58.745 176.631 52.0097C167.405 45.2209 158.602 37.7336 152.155 30.2507C145.459 22.4782 142.695 16.3117 142.546 11.9929L130.548 12.1965ZM207.845 86.3537C202.967 75.3105 202.964 75.3118 202.96 75.3132C202.959 75.3138 202.955 75.3154 202.952 75.3166C202.946 75.3192 202.939 75.3222 202.931 75.3257C202.915 75.3327 202.894 75.3416 202.869 75.3525C202.818 75.3743 202.75 75.4038 202.665 75.441C202.495 75.5153 202.257 75.6203 201.954 75.7554C201.35 76.0256 200.491 76.4166 199.412 76.9241C197.257 77.9383 194.219 79.4221 190.595 81.3404C183.376 85.1613 173.687 90.7821 163.973 97.9359C154.321 105.045 144.234 113.966 136.583 124.493C128.918 135.038 123.214 147.884 123.717 162.491L135.716 162.288L147.714 162.084C147.451 154.443 150.38 146.673 156.096 138.809C161.825 130.927 169.867 123.645 178.437 117.333C186.948 111.065 195.578 106.046 202.123 102.582C205.38 100.858 208.085 99.5376 209.952 98.6587C210.885 98.2197 211.607 97.8919 212.081 97.6798C212.318 97.5738 212.493 97.4969 212.601 97.4495C212.656 97.4258 212.693 97.4096 212.713 97.4008C212.724 97.3964 212.73 97.3938 212.731 97.3932C212.732 97.3929 212.731 97.393 212.73 97.3936C212.729 97.3939 212.727 97.3948 212.727 97.3949C212.725 97.3958 212.722 97.3969 207.845 86.3537Z" fill="black"/>
</svg>
