<?xml version="1.0" encoding="UTF-8"?>
<svg xmlns="http://www.w3.org/2000/svg" width="145" height="50" viewBox="0 0 145 50" fill="none">
  <g filter="url(#filter0_di_193_608)">
    <rect x="4" width="137" height="42" rx="8" fill="url(#paint0_linear_193_608)" shape-rendering="crispEdges"></rect>
    <path d="M44.218 16.726L43.602 17.09C43.266 16.572 42.86 16.222 42.37 16.04C41.88 15.872 41.306 15.774 40.634 15.76C40.186 15.76 39.752 15.816 39.332 15.914C38.912 16.026 38.534 16.236 38.184 16.544C37.834 16.866 37.666 17.272 37.666 17.748C37.666 18 37.722 18.21 37.834 18.392C37.946 18.588 38.072 18.742 38.226 18.854C38.38 18.966 38.604 19.078 38.898 19.176C39.192 19.288 39.458 19.358 39.696 19.414C39.934 19.47 40.256 19.526 40.662 19.596C41.88 19.834 42.72 20.058 43.168 20.282C44.064 20.73 44.512 21.43 44.512 22.41C44.512 22.942 44.386 23.39 44.134 23.768C43.882 24.146 43.56 24.426 43.168 24.622C42.762 24.818 42.356 24.944 41.936 25.028C41.516 25.112 41.082 25.154 40.634 25.154C39.794 25.154 39.01 24.986 38.268 24.622C37.512 24.258 36.966 23.726 36.616 23.026L37.288 22.69C37.568 23.25 38.03 23.698 38.674 24.006C39.318 24.314 39.976 24.468 40.634 24.468C40.97 24.468 41.306 24.44 41.642 24.384C41.964 24.328 42.3 24.23 42.636 24.09C42.972 23.95 43.238 23.74 43.448 23.446C43.644 23.166 43.756 22.816 43.756 22.396C43.756 22.172 43.714 21.962 43.644 21.766C43.56 21.57 43.434 21.402 43.266 21.262C43.098 21.122 42.93 21.01 42.762 20.912C42.594 20.828 42.37 20.73 42.076 20.646C41.768 20.562 41.53 20.506 41.348 20.464C41.152 20.422 40.886 20.366 40.536 20.296C40.144 20.226 39.836 20.17 39.626 20.114C39.416 20.072 39.15 20.002 38.814 19.904C38.478 19.806 38.212 19.694 38.03 19.582C37.848 19.47 37.666 19.33 37.47 19.162C37.274 18.994 37.12 18.798 37.036 18.56C36.952 18.336 36.91 18.07 36.91 17.776C36.896 17.286 37.008 16.852 37.232 16.488C37.456 16.124 37.764 15.83 38.156 15.634C38.548 15.438 38.94 15.298 39.36 15.2C39.766 15.116 40.186 15.06 40.634 15.06C41.446 15.06 42.132 15.172 42.692 15.396C43.252 15.62 43.77 16.068 44.218 16.726ZM49.7398 24.468C50.5518 24.468 51.2378 24.216 51.7698 23.712C52.3018 23.208 52.5678 22.48 52.5678 21.542C52.5678 20.618 52.3018 19.904 51.7698 19.4C51.2378 18.896 50.5518 18.644 49.7398 18.644C48.9278 18.644 48.2698 18.924 47.7378 19.47C47.2058 20.016 46.9398 20.716 46.9398 21.556C46.9398 22.396 47.2058 23.096 47.7378 23.642C48.2698 24.202 48.9418 24.468 49.7398 24.468ZM46.8838 28.346H46.2258V18.084H46.8978V19.722C47.1778 19.19 47.5698 18.77 48.1018 18.462C48.6338 18.154 49.2218 17.986 49.8938 17.986C50.8738 18.028 51.6718 18.364 52.3018 18.994C52.9318 19.624 53.2538 20.478 53.2538 21.542C53.2538 22.662 52.9178 23.544 52.2598 24.174C51.5878 24.818 50.7478 25.126 49.7398 25.126C49.1238 25.126 48.5778 24.986 48.0738 24.692C47.5698 24.398 47.1638 23.964 46.8838 23.404V28.346ZM58.1235 25.112C57.1155 25.112 56.2895 24.79 55.6175 24.146C54.9455 23.502 54.6095 22.648 54.6095 21.57C54.6095 20.506 54.9455 19.638 55.6175 18.966C56.2895 18.308 57.1155 17.972 58.1235 17.972C59.1175 17.972 59.9575 18.308 60.6295 18.966C61.3015 19.638 61.6375 20.506 61.6375 21.57C61.6375 22.648 61.3015 23.502 60.6295 24.146C59.9575 24.79 59.1175 25.112 58.1235 25.112ZM58.1235 24.44C58.9355 24.44 59.6075 24.188 60.1535 23.656C60.6855 23.138 60.9655 22.438 60.9655 21.57C60.9655 20.702 60.6855 19.988 60.1395 19.442C59.5935 18.896 58.9215 18.616 58.1235 18.616C57.3115 18.616 56.6395 18.896 56.0935 19.442C55.5475 19.988 55.2815 20.702 55.2815 21.57C55.2815 22.438 55.5475 23.138 56.0935 23.656C56.6255 24.188 57.3115 24.44 58.1235 24.44ZM63.4387 18.084H64.1107V19.316C64.6007 18.434 65.4267 17.986 66.5747 17.958C67.4987 17.958 68.2547 18.238 68.8287 18.784C69.4027 19.33 69.6967 20.072 69.6967 21.01V25H69.0107V21.024C69.0107 20.254 68.7867 19.666 68.3527 19.246C67.9047 18.826 67.3027 18.63 66.5467 18.63C65.8327 18.644 65.2447 18.882 64.7967 19.358C64.3487 19.834 64.1247 20.436 64.1247 21.15V25H63.4387V18.084ZM76.8582 18.896L76.4382 19.344C75.8782 18.868 75.1642 18.616 74.2822 18.616C73.6942 18.616 73.1902 18.714 72.7842 18.938C72.3782 19.162 72.1822 19.47 72.1962 19.89C72.1962 20.044 72.2242 20.184 72.2802 20.296C72.3362 20.408 72.4342 20.52 72.5742 20.604C72.7002 20.688 72.8122 20.758 72.9102 20.814C73.0082 20.87 73.1622 20.912 73.3862 20.968C73.5962 21.024 73.7362 21.052 73.8202 21.066C73.9042 21.094 74.0582 21.122 74.2962 21.15C75.2482 21.318 75.8922 21.486 76.2282 21.654C76.8722 21.976 77.1802 22.48 77.1522 23.18C77.1382 23.656 76.9702 24.048 76.6622 24.356C76.3402 24.664 75.9762 24.86 75.5842 24.958C75.1922 25.07 74.7582 25.112 74.3102 25.112C73.6662 25.112 73.0782 25 72.5322 24.762C71.9862 24.524 71.5662 24.174 71.2862 23.726L71.7902 23.278C72.0562 23.67 72.4202 23.964 72.8822 24.16C73.3442 24.356 73.8202 24.454 74.3242 24.454C74.6602 24.454 74.9682 24.426 75.2622 24.37C75.5422 24.314 75.8222 24.174 76.0742 23.964C76.3262 23.754 76.4662 23.474 76.4802 23.138C76.4802 22.942 76.4382 22.774 76.3542 22.634C76.2562 22.494 76.1442 22.368 76.0322 22.284C75.9202 22.2 75.7382 22.116 75.5002 22.046C75.2622 21.976 75.0662 21.92 74.9122 21.892C74.7442 21.864 74.5202 21.822 74.2262 21.766C73.8762 21.71 73.6102 21.668 73.4142 21.626C73.2182 21.584 72.9802 21.514 72.7142 21.416C72.4342 21.332 72.2242 21.22 72.0842 21.094C71.9442 20.982 71.8182 20.814 71.7062 20.618C71.5942 20.422 71.5382 20.184 71.5382 19.904C71.5242 19.274 71.7902 18.798 72.3222 18.462C72.8542 18.126 73.5122 17.972 74.2822 17.972C75.3462 17.972 76.2002 18.28 76.8582 18.896ZM81.9399 25.112C80.9319 25.112 80.1059 24.79 79.4339 24.146C78.7619 23.502 78.4259 22.648 78.4259 21.57C78.4259 20.506 78.7619 19.638 79.4339 18.966C80.1059 18.308 80.9319 17.972 81.9399 17.972C82.9339 17.972 83.7739 18.308 84.4459 18.966C85.1179 19.638 85.4539 20.506 85.4539 21.57C85.4539 22.648 85.1179 23.502 84.4459 24.146C83.7739 24.79 82.9339 25.112 81.9399 25.112ZM81.9399 24.44C82.7519 24.44 83.4239 24.188 83.9699 23.656C84.5019 23.138 84.7819 22.438 84.7819 21.57C84.7819 20.702 84.5019 19.988 83.9559 19.442C83.4099 18.896 82.7379 18.616 81.9399 18.616C81.1279 18.616 80.4559 18.896 79.9099 19.442C79.3639 19.988 79.0979 20.702 79.0979 21.57C79.0979 22.438 79.3639 23.138 79.9099 23.656C80.4419 24.188 81.1279 24.44 81.9399 24.44ZM87.2551 18.084H87.8991L87.9271 19.316C88.1231 18.882 88.4451 18.56 88.8651 18.336C89.2851 18.126 89.7331 18.014 90.2231 18.014C90.7411 18 91.2311 18.14 91.7071 18.42L91.3991 18.98C91.0491 18.77 90.6571 18.658 90.2231 18.658C89.5791 18.672 89.0331 18.896 88.5991 19.344C88.1511 19.792 87.9411 20.338 87.9411 20.968V25H87.2551V18.084ZM95.6255 25.112C94.6175 25.112 93.7915 24.79 93.1195 24.132C92.4475 23.488 92.1115 22.62 92.1115 21.542C92.1115 20.52 92.4475 19.666 93.1335 18.994C93.8055 18.322 94.6455 17.972 95.6255 17.972C96.6895 17.972 97.5435 18.308 98.2155 18.966C98.8875 19.638 99.1535 20.604 99.0415 21.864H92.8115C92.8675 22.648 93.1755 23.278 93.7075 23.74C94.2395 24.216 94.8835 24.44 95.6255 24.44C96.1015 24.44 96.5635 24.356 97.0395 24.16C97.5015 23.978 97.8655 23.726 98.1175 23.39L98.6075 23.782C98.2715 24.216 97.8375 24.552 97.3055 24.776C96.7595 25 96.1995 25.112 95.6255 25.112ZM92.8115 21.262H98.4255C98.4115 20.422 98.1595 19.778 97.6555 19.302C97.1515 18.84 96.4655 18.602 95.6255 18.602C94.8835 18.602 94.2535 18.84 93.7215 19.316C93.1895 19.792 92.8815 20.45 92.8115 21.262ZM103.842 18.63C103.016 18.63 102.344 18.882 101.812 19.386C101.28 19.89 101.014 20.618 101.014 21.542C101.014 22.466 101.28 23.18 101.812 23.684C102.344 24.188 103.03 24.44 103.842 24.44C104.654 24.44 105.34 24.174 105.872 23.628C106.404 23.096 106.67 22.396 106.67 21.528C106.67 20.688 106.39 19.988 105.858 19.442C105.326 18.91 104.654 18.63 103.842 18.63ZM106.684 15.2H107.356V25H106.684V23.474C106.404 23.992 105.998 24.398 105.48 24.678C104.948 24.972 104.388 25.112 103.8 25.112C102.792 25.112 101.966 24.804 101.322 24.16C100.664 23.53 100.342 22.662 100.342 21.542C100.342 20.436 100.664 19.568 101.322 18.924C101.98 18.294 102.806 17.972 103.814 17.972C104.43 17.972 105.004 18.112 105.508 18.378C106.012 18.658 106.404 19.064 106.684 19.596V15.2Z" fill="white"></path>
  </g>
  <defs>
    <filter id="filter0_di_193_608" x="0" y="0" width="145" height="50" color-interpolation-filters="sRGB">
      <feFlood flood-opacity="0" result="BackgroundImageFix"></feFlood>
      <feColorMatrix in="SourceAlpha" type="matrix" values="0 0 0 0 0 0 0 0 0 0 0 0 0 0 0 0 0 0 127 0" result="hardAlpha"></feColorMatrix>
      <feOffset dy="4"></feOffset>
      <feGaussianBlur stdDeviation="2"></feGaussianBlur>
      <feComposite in2="hardAlpha" operator="out"></feComposite>
      <feColorMatrix type="matrix" values="0 0 0 0 0 0 0 0 0 0 0 0 0 0 0 0 0 0 0.25 0"></feColorMatrix>
      <feBlend mode="normal" in2="BackgroundImageFix" result="effect1_dropShadow_193_608"></feBlend>
      <feBlend mode="normal" in="SourceGraphic" in2="effect1_dropShadow_193_608" result="shape"></feBlend>
      <feColorMatrix in="SourceAlpha" type="matrix" values="0 0 0 0 0 0 0 0 0 0 0 0 0 0 0 0 0 0 127 0" result="hardAlpha"></feColorMatrix>
      <feOffset dx="2" dy="4"></feOffset>
      <feGaussianBlur stdDeviation="2"></feGaussianBlur>
      <feComposite in2="hardAlpha" operator="arithmetic" k2="-1" k3="1"></feComposite>
      <feColorMatrix type="matrix" values="0 0 0 0 0.216667 0 0 0 0 0.204028 0 0 0 0 0.204028 0 0 0 0.25 0"></feColorMatrix>
      <feBlend mode="normal" in2="shape" result="effect2_innerShadow_193_608"></feBlend>
    </filter>
    <linearGradient id="paint0_linear_193_608" x1="4.00001" y1="-5.50001" x2="134" y2="82.5" gradientUnits="userSpaceOnUse">
      <stop stop-color="#1A1919" stop-opacity="0"></stop>
      <stop offset="1" stop-color="#CF1D1D"></stop>
    </linearGradient>
  </defs>
</svg>
