<svg xmlns="http://www.w3.org/2000/svg" width="211" height="15" viewBox="0 0 211 15" fill="none"><rect width="14.3219" height="14.3219" transform="translate(0.102539)" fill="#219653"></rect><path d="M7.26348 9.79337L9.44159 9.21013L10.3516 12.1736L7.26348 9.79337ZM12.2761 5.96294H8.44204L7.26348 2.14828L6.08491 5.96294H2.25082L5.3539 8.3274L4.17532 12.1421L7.2784 9.7776L9.18798 8.3274L12.2761 5.96294Z" fill="white"></path><rect width="14.3219" height="14.3219" transform="translate(17.2888)" fill="#219653"></rect><path d="M24.4497 9.79337L26.6278 9.21013L27.5379 12.1736L24.4497 9.79337ZM29.4624 5.96294H25.6283L24.4497 2.14828L23.2712 5.96294H19.4371L22.5401 8.3274L21.3616 12.1421L24.4646 9.7776L26.3742 8.3274L29.4624 5.96294Z" fill="white"></path><rect width="14.3219" height="14.3219" transform="translate(34.475)" fill="#219653"></rect><path d="M41.6359 9.79337L43.8141 9.21013L44.7241 12.1736L41.6359 9.79337ZM46.6486 5.96294H42.8145L41.6359 2.14828L40.4574 5.96294H36.6233L39.7264 8.3274L38.5478 12.1421L41.6509 9.7776L43.5604 8.3274L46.6486 5.96294Z" fill="white"></path><rect width="14.3219" height="14.3219" transform="translate(51.6613)" fill="#219653"></rect><path d="M58.8222 9.79337L61.0003 9.21013L61.9103 12.1736L58.8222 9.79337ZM63.8348 5.96294H60.0008L58.8222 2.14828L57.6436 5.96294H53.8095L56.9126 8.3274L55.734 12.1421L58.8371 9.7776L60.7467 8.3274L63.8348 5.96294Z" fill="white"></path><rect width="14.3219" height="14.3219" transform="translate(68.8475)" fill="#219653"></rect><path d="M76.0084 9.79337L78.1865 9.21013L79.0966 12.1736L76.0084 9.79337ZM81.0211 5.96294H77.187L76.0084 2.14828L74.8298 5.96294H70.9958L74.0988 8.3274L72.9203 12.1421L76.0233 9.7776L77.9329 8.3274L81.0211 5.96294Z" fill="white"></path><path d="M90.1757 12.1609V6.08293H90.8177C90.9697 6.08293 91.0637 6.15693 91.0997 6.30493L91.1777 6.92893C91.4017 6.65293 91.6537 6.42693 91.9337 6.25093C92.2137 6.07493 92.5377 5.98693 92.9057 5.98693C93.3137 5.98693 93.6437 6.10093 93.8957 6.32893C94.1517 6.55693 94.3357 6.86493 94.4477 7.25293C94.5357 7.03293 94.6477 6.84293 94.7837 6.68293C94.9237 6.52293 95.0797 6.39093 95.2517 6.28693C95.4237 6.18293 95.6057 6.10693 95.7977 6.05893C95.9937 6.01093 96.1917 5.98693 96.3917 5.98693C96.7117 5.98693 96.9957 6.03893 97.2437 6.14293C97.4957 6.24293 97.7077 6.39093 97.8797 6.58693C98.0557 6.78293 98.1897 7.02493 98.2817 7.31293C98.3737 7.59693 98.4197 7.92293 98.4197 8.29093V12.1609H97.3457V8.29093C97.3457 7.81493 97.2417 7.45493 97.0337 7.21093C96.8257 6.96293 96.5257 6.83893 96.1337 6.83893C95.9577 6.83893 95.7897 6.87093 95.6297 6.93493C95.4737 6.99493 95.3357 7.08493 95.2157 7.20493C95.0957 7.32493 94.9997 7.47693 94.9277 7.66093C94.8597 7.84093 94.8257 8.05093 94.8257 8.29093V12.1609H93.7517V8.29093C93.7517 7.80293 93.6537 7.43893 93.4577 7.19893C93.2617 6.95893 92.9757 6.83893 92.5997 6.83893C92.3357 6.83893 92.0917 6.91093 91.8677 7.05493C91.6437 7.19493 91.4377 7.38693 91.2497 7.63093V12.1609H90.1757ZM102.605 5.98693C103.049 5.98693 103.449 6.06093 103.805 6.20893C104.161 6.35693 104.465 6.56693 104.717 6.83893C104.969 7.11093 105.161 7.44093 105.293 7.82893C105.429 8.21293 105.497 8.64293 105.497 9.11893C105.497 9.59893 105.429 10.0309 105.293 10.4149C105.161 10.7989 104.969 11.1269 104.717 11.3989C104.465 11.6709 104.161 11.8809 103.805 12.0289C103.449 12.1729 103.049 12.2449 102.605 12.2449C102.157 12.2449 101.753 12.1729 101.393 12.0289C101.037 11.8809 100.733 11.6709 100.481 11.3989C100.229 11.1269 100.035 10.7989 99.8989 10.4149C99.7669 10.0309 99.7009 9.59893 99.7009 9.11893C99.7009 8.64293 99.7669 8.21293 99.8989 7.82893C100.035 7.44093 100.229 7.11093 100.481 6.83893C100.733 6.56693 101.037 6.35693 101.393 6.20893C101.753 6.06093 102.157 5.98693 102.605 5.98693ZM102.605 11.4109C103.205 11.4109 103.653 11.2109 103.949 10.8109C104.245 10.4069 104.393 9.84493 104.393 9.12493C104.393 8.40093 104.245 7.83693 103.949 7.43293C103.653 7.02893 103.205 6.82693 102.605 6.82693C102.301 6.82693 102.035 6.87893 101.807 6.98293C101.583 7.08693 101.395 7.23693 101.243 7.43293C101.095 7.62893 100.983 7.87093 100.907 8.15893C100.835 8.44293 100.799 8.76493 100.799 9.12493C100.799 9.84493 100.947 10.4069 101.243 10.8109C101.543 11.2109 101.997 11.4109 102.605 11.4109ZM107.865 7.30093C108.057 6.88493 108.293 6.56093 108.573 6.32893C108.853 6.09293 109.195 5.97493 109.599 5.97493C109.727 5.97493 109.849 5.98893 109.965 6.01693C110.085 6.04493 110.191 6.08893 110.283 6.14893L110.205 6.94693C110.181 7.04693 110.121 7.09693 110.025 7.09693C109.969 7.09693 109.887 7.08493 109.779 7.06093C109.671 7.03693 109.549 7.02493 109.413 7.02493C109.221 7.02493 109.049 7.05293 108.897 7.10893C108.749 7.16493 108.615 7.24893 108.495 7.36093C108.379 7.46893 108.273 7.60493 108.177 7.76893C108.085 7.92893 108.001 8.11293 107.925 8.32093V12.1609H106.851V6.08293H107.463C107.579 6.08293 107.659 6.10493 107.703 6.14893C107.747 6.19293 107.777 6.26893 107.793 6.37693L107.865 7.30093ZM115.044 8.45893C115.044 8.21093 115.008 7.98493 114.936 7.78093C114.868 7.57293 114.766 7.39493 114.63 7.24693C114.498 7.09493 114.336 6.97893 114.144 6.89893C113.952 6.81493 113.734 6.77293 113.49 6.77293C112.978 6.77293 112.572 6.92293 112.272 7.22293C111.976 7.51893 111.792 7.93093 111.72 8.45893H115.044ZM115.908 11.3089C115.776 11.4689 115.618 11.6089 115.434 11.7289C115.25 11.8449 115.052 11.9409 114.84 12.0169C114.632 12.0929 114.416 12.1489 114.192 12.1849C113.968 12.2249 113.746 12.2449 113.526 12.2449C113.106 12.2449 112.718 12.1749 112.362 12.0349C112.01 11.8909 111.704 11.6829 111.444 11.4109C111.188 11.1349 110.988 10.7949 110.844 10.3909C110.7 9.98693 110.628 9.52293 110.628 8.99893C110.628 8.57493 110.692 8.17893 110.82 7.81093C110.952 7.44293 111.14 7.12493 111.384 6.85693C111.628 6.58493 111.926 6.37293 112.278 6.22093C112.63 6.06493 113.026 5.98693 113.466 5.98693C113.83 5.98693 114.166 6.04893 114.474 6.17293C114.786 6.29293 115.054 6.46893 115.278 6.70093C115.506 6.92893 115.684 7.21293 115.812 7.55293C115.94 7.88893 116.004 8.27293 116.004 8.70493C116.004 8.87293 115.986 8.98493 115.95 9.04093C115.914 9.09693 115.846 9.12493 115.746 9.12493H111.684C111.696 9.50893 111.748 9.84293 111.84 10.1269C111.936 10.4109 112.068 10.6489 112.236 10.8409C112.404 11.0289 112.604 11.1709 112.836 11.2669C113.068 11.3589 113.328 11.4049 113.616 11.4049C113.884 11.4049 114.114 11.3749 114.306 11.3149C114.502 11.2509 114.67 11.1829 114.81 11.1109C114.95 11.0389 115.066 10.9729 115.158 10.9129C115.254 10.8489 115.336 10.8169 115.404 10.8169C115.492 10.8169 115.56 10.8509 115.608 10.9189L115.908 11.3089ZM122.253 12.2569C121.773 12.2569 121.403 12.1229 121.143 11.8549C120.887 11.5869 120.759 11.2009 120.759 10.6969V6.97693H120.027C119.963 6.97693 119.909 6.95893 119.865 6.92293C119.821 6.88293 119.799 6.82293 119.799 6.74293V6.31693L120.795 6.19093L121.041 4.31293C121.053 4.25293 121.079 4.20493 121.119 4.16893C121.163 4.12893 121.219 4.10893 121.287 4.10893H121.827V6.20293H123.585V6.97693H121.827V10.6249C121.827 10.8809 121.889 11.0709 122.013 11.1949C122.137 11.3189 122.297 11.3809 122.493 11.3809C122.605 11.3809 122.701 11.3669 122.781 11.3389C122.865 11.3069 122.937 11.2729 122.997 11.2369C123.057 11.2009 123.107 11.1689 123.147 11.1409C123.191 11.1089 123.229 11.0929 123.261 11.0929C123.317 11.0929 123.367 11.1269 123.411 11.1949L123.723 11.7049C123.539 11.8769 123.317 12.0129 123.057 12.1129C122.797 12.2089 122.529 12.2569 122.253 12.2569ZM125.761 6.89293C126.021 6.61693 126.309 6.39693 126.625 6.23293C126.941 6.06893 127.305 5.98693 127.717 5.98693C128.049 5.98693 128.341 6.04293 128.593 6.15493C128.849 6.26293 129.061 6.41893 129.229 6.62293C129.401 6.82293 129.531 7.06493 129.619 7.34893C129.707 7.63293 129.751 7.94693 129.751 8.29093V12.1609H128.677V8.29093C128.677 7.83093 128.571 7.47493 128.359 7.22293C128.151 6.96693 127.833 6.83893 127.405 6.83893C127.089 6.83893 126.793 6.91493 126.517 7.06693C126.245 7.21893 125.993 7.42493 125.761 7.68493V12.1609H124.687V3.32293H125.761V6.89293ZM134.673 9.42493C134.181 9.44093 133.761 9.48093 133.413 9.54493C133.069 9.60493 132.787 9.68493 132.567 9.78493C132.351 9.88493 132.193 10.0029 132.093 10.1389C131.997 10.2749 131.949 10.4269 131.949 10.5949C131.949 10.7549 131.975 10.8929 132.027 11.0089C132.079 11.1249 132.149 11.2209 132.237 11.2969C132.329 11.3689 132.435 11.4229 132.555 11.4589C132.679 11.4909 132.811 11.5069 132.951 11.5069C133.139 11.5069 133.311 11.4889 133.467 11.4529C133.623 11.4129 133.769 11.3569 133.905 11.2849C134.045 11.2129 134.177 11.1269 134.301 11.0269C134.429 10.9269 134.553 10.8129 134.673 10.6849V9.42493ZM131.223 6.94093C131.559 6.61693 131.921 6.37493 132.309 6.21493C132.697 6.05493 133.127 5.97493 133.599 5.97493C133.939 5.97493 134.241 6.03093 134.505 6.14293C134.769 6.25493 134.991 6.41093 135.171 6.61093C135.351 6.81093 135.487 7.05293 135.579 7.33693C135.671 7.62093 135.717 7.93293 135.717 8.27293V12.1609H135.243C135.139 12.1609 135.059 12.1449 135.003 12.1129C134.947 12.0769 134.903 12.0089 134.871 11.9089L134.751 11.3329C134.591 11.4809 134.435 11.6129 134.283 11.7289C134.131 11.8409 133.971 11.9369 133.803 12.0169C133.635 12.0929 133.455 12.1509 133.263 12.1909C133.075 12.2349 132.865 12.2569 132.633 12.2569C132.397 12.2569 132.175 12.2249 131.967 12.1609C131.759 12.0929 131.577 11.9929 131.421 11.8609C131.269 11.7289 131.147 11.5629 131.055 11.3629C130.967 11.1589 130.923 10.9189 130.923 10.6429C130.923 10.4029 130.989 10.1729 131.121 9.95293C131.253 9.72893 131.467 9.53093 131.763 9.35893C132.059 9.18693 132.445 9.04693 132.921 8.93893C133.397 8.82693 133.981 8.76293 134.673 8.74693V8.27293C134.673 7.80093 134.571 7.44493 134.367 7.20493C134.163 6.96093 133.865 6.83893 133.473 6.83893C133.209 6.83893 132.987 6.87293 132.807 6.94093C132.631 7.00493 132.477 7.07893 132.345 7.16293C132.217 7.24293 132.105 7.31693 132.009 7.38493C131.917 7.44893 131.825 7.48093 131.733 7.48093C131.661 7.48093 131.599 7.46293 131.547 7.42693C131.495 7.38693 131.451 7.33893 131.415 7.28293L131.223 6.94093ZM138.352 6.96493C138.484 6.81693 138.624 6.68293 138.772 6.56293C138.92 6.44293 139.076 6.34093 139.24 6.25693C139.408 6.16893 139.584 6.10293 139.768 6.05893C139.956 6.01093 140.158 5.98693 140.374 5.98693C140.706 5.98693 140.998 6.04293 141.25 6.15493C141.506 6.26293 141.718 6.41893 141.886 6.62293C142.058 6.82293 142.188 7.06493 142.276 7.34893C142.364 7.63293 142.408 7.94693 142.408 8.29093V12.1609H141.334V8.29093C141.334 7.83093 141.228 7.47493 141.016 7.22293C140.808 6.96693 140.49 6.83893 140.062 6.83893C139.746 6.83893 139.45 6.91493 139.174 7.06693C138.902 7.21893 138.65 7.42493 138.418 7.68493V12.1609H137.344V6.08293H137.986C138.138 6.08293 138.232 6.15693 138.268 6.30493L138.352 6.96493ZM148.431 6.80893C148.879 6.71293 149.291 6.66493 149.667 6.66493C150.115 6.66493 150.511 6.73093 150.855 6.86293C151.199 6.99493 151.485 7.17693 151.713 7.40893C151.945 7.64093 152.119 7.91493 152.235 8.23093C152.355 8.54693 152.415 8.89093 152.415 9.26293C152.415 9.71893 152.335 10.1309 152.175 10.4989C152.019 10.8669 151.801 11.1829 151.521 11.4469C151.245 11.7069 150.919 11.9069 150.543 12.0469C150.167 12.1869 149.761 12.2569 149.325 12.2569C149.073 12.2569 148.831 12.2309 148.599 12.1789C148.367 12.1309 148.149 12.0649 147.945 11.9809C147.745 11.8969 147.559 11.8009 147.387 11.6929C147.215 11.5849 147.063 11.4709 146.931 11.3509L147.261 10.8949C147.333 10.7909 147.427 10.7389 147.543 10.7389C147.623 10.7389 147.713 10.7709 147.813 10.8349C147.913 10.8949 148.035 10.9629 148.179 11.0389C148.323 11.1149 148.491 11.1849 148.683 11.2489C148.879 11.3089 149.111 11.3389 149.379 11.3389C149.679 11.3389 149.949 11.2909 150.189 11.1949C150.429 11.0989 150.635 10.9629 150.807 10.7869C150.979 10.6069 151.111 10.3929 151.203 10.1449C151.295 9.89693 151.341 9.61893 151.341 9.31093C151.341 9.04293 151.301 8.80093 151.221 8.58493C151.145 8.36893 151.027 8.18493 150.867 8.03293C150.711 7.88093 150.515 7.76293 150.279 7.67893C150.043 7.59493 149.767 7.55293 149.451 7.55293C149.235 7.55293 149.009 7.57093 148.773 7.60693C148.541 7.64293 148.303 7.70093 148.059 7.78093L147.387 7.58293L148.077 3.56293H152.151V4.03093C152.151 4.18293 152.103 4.30893 152.007 4.40893C151.915 4.50493 151.755 4.55293 151.527 4.55293H148.827L148.431 6.80893ZM159.82 7.86493C159.82 8.61693 159.738 9.26893 159.574 9.82093C159.414 10.3689 159.194 10.8229 158.914 11.1829C158.634 11.5429 158.302 11.8109 157.918 11.9869C157.538 12.1629 157.13 12.2509 156.694 12.2509C156.254 12.2509 155.844 12.1629 155.464 11.9869C155.088 11.8109 154.76 11.5429 154.48 11.1829C154.2 10.8229 153.98 10.3689 153.82 9.82093C153.66 9.26893 153.58 8.61693 153.58 7.86493C153.58 7.11293 153.66 6.46093 153.82 5.90893C153.98 5.35693 154.2 4.90093 154.48 4.54093C154.76 4.17693 155.088 3.90693 155.464 3.73093C155.844 3.55493 156.254 3.46693 156.694 3.46693C157.13 3.46693 157.538 3.55493 157.918 3.73093C158.302 3.90693 158.634 4.17693 158.914 4.54093C159.194 4.90093 159.414 5.35693 159.574 5.90893C159.738 6.46093 159.82 7.11293 159.82 7.86493ZM158.71 7.86493C158.71 7.20893 158.654 6.65893 158.542 6.21493C158.434 5.76693 158.286 5.40693 158.098 5.13493C157.914 4.86293 157.7 4.66893 157.456 4.55293C157.212 4.43293 156.958 4.37293 156.694 4.37293C156.43 4.37293 156.176 4.43293 155.932 4.55293C155.688 4.66893 155.474 4.86293 155.29 5.13493C155.106 5.40693 154.958 5.76693 154.846 6.21493C154.738 6.65893 154.684 7.20893 154.684 7.86493C154.684 8.52093 154.738 9.07093 154.846 9.51493C154.958 9.95893 155.106 10.3169 155.29 10.5889C155.474 10.8609 155.688 11.0569 155.932 11.1769C156.176 11.2929 156.43 11.3509 156.694 11.3509C156.958 11.3509 157.212 11.2929 157.456 11.1769C157.7 11.0569 157.914 10.8609 158.098 10.5889C158.286 10.3169 158.434 9.95893 158.542 9.51493C158.654 9.07093 158.71 8.52093 158.71 7.86493ZM166.541 8.53693H164.093V11.1169H163.223V8.53693H160.787V7.72693H163.223V5.16493H164.093V7.72693H166.541V8.53693ZM172.073 7.30093C172.265 6.88493 172.501 6.56093 172.781 6.32893C173.061 6.09293 173.403 5.97493 173.807 5.97493C173.935 5.97493 174.057 5.98893 174.173 6.01693C174.293 6.04493 174.399 6.08893 174.491 6.14893L174.413 6.94693C174.389 7.04693 174.329 7.09693 174.233 7.09693C174.177 7.09693 174.095 7.08493 173.987 7.06093C173.879 7.03693 173.757 7.02493 173.621 7.02493C173.429 7.02493 173.257 7.05293 173.105 7.10893C172.957 7.16493 172.823 7.24893 172.703 7.36093C172.587 7.46893 172.481 7.60493 172.385 7.76893C172.293 7.92893 172.209 8.11293 172.133 8.32093V12.1609H171.059V6.08293H171.671C171.787 6.08293 171.867 6.10493 171.911 6.14893C171.955 6.19293 171.985 6.26893 172.001 6.37693L172.073 7.30093ZM179.252 8.45893C179.252 8.21093 179.216 7.98493 179.144 7.78093C179.076 7.57293 178.974 7.39493 178.838 7.24693C178.706 7.09493 178.544 6.97893 178.352 6.89893C178.16 6.81493 177.942 6.77293 177.698 6.77293C177.186 6.77293 176.78 6.92293 176.48 7.22293C176.184 7.51893 176 7.93093 175.928 8.45893H179.252ZM180.116 11.3089C179.984 11.4689 179.826 11.6089 179.642 11.7289C179.458 11.8449 179.26 11.9409 179.048 12.0169C178.84 12.0929 178.624 12.1489 178.4 12.1849C178.176 12.2249 177.954 12.2449 177.734 12.2449C177.314 12.2449 176.926 12.1749 176.57 12.0349C176.218 11.8909 175.912 11.6829 175.652 11.4109C175.396 11.1349 175.196 10.7949 175.052 10.3909C174.908 9.98693 174.836 9.52293 174.836 8.99893C174.836 8.57493 174.9 8.17893 175.028 7.81093C175.16 7.44293 175.348 7.12493 175.592 6.85693C175.836 6.58493 176.134 6.37293 176.486 6.22093C176.838 6.06493 177.234 5.98693 177.674 5.98693C178.038 5.98693 178.374 6.04893 178.682 6.17293C178.994 6.29293 179.262 6.46893 179.486 6.70093C179.714 6.92893 179.892 7.21293 180.02 7.55293C180.148 7.88893 180.212 8.27293 180.212 8.70493C180.212 8.87293 180.194 8.98493 180.158 9.04093C180.122 9.09693 180.054 9.12493 179.954 9.12493H175.892C175.904 9.50893 175.956 9.84293 176.048 10.1269C176.144 10.4109 176.276 10.6489 176.444 10.8409C176.612 11.0289 176.812 11.1709 177.044 11.2669C177.276 11.3589 177.536 11.4049 177.824 11.4049C178.092 11.4049 178.322 11.3749 178.514 11.3149C178.71 11.2509 178.878 11.1829 179.018 11.1109C179.158 11.0389 179.274 10.9729 179.366 10.9129C179.462 10.8489 179.544 10.8169 179.612 10.8169C179.7 10.8169 179.768 10.8509 179.816 10.9189L180.116 11.3089ZM186.602 6.08293L184.124 12.1609H183.164L180.686 6.08293H181.556C181.644 6.08293 181.716 6.10493 181.772 6.14893C181.828 6.19293 181.866 6.24493 181.886 6.30493L183.428 10.2169C183.476 10.3649 183.518 10.5089 183.554 10.6489C183.59 10.7889 183.624 10.9289 183.656 11.0689C183.688 10.9289 183.722 10.7889 183.758 10.6489C183.794 10.5089 183.838 10.3649 183.89 10.2169L185.45 6.30493C185.474 6.24093 185.514 6.18893 185.57 6.14893C185.626 6.10493 185.692 6.08293 185.768 6.08293H186.602ZM188.71 6.08293V12.1609H187.642V6.08293H188.71ZM188.938 4.17493C188.938 4.27893 188.916 4.37693 188.872 4.46893C188.832 4.55693 188.776 4.63693 188.704 4.70893C188.636 4.77693 188.554 4.83093 188.458 4.87093C188.366 4.91093 188.268 4.93093 188.164 4.93093C188.06 4.93093 187.962 4.91093 187.87 4.87093C187.782 4.83093 187.704 4.77693 187.636 4.70893C187.568 4.63693 187.514 4.55693 187.474 4.46893C187.434 4.37693 187.414 4.27893 187.414 4.17493C187.414 4.07093 187.434 3.97293 187.474 3.88093C187.514 3.78493 187.568 3.70293 187.636 3.63493C187.704 3.56293 187.782 3.50693 187.87 3.46693C187.962 3.42693 188.06 3.40693 188.164 3.40693C188.268 3.40693 188.366 3.42693 188.458 3.46693C188.554 3.50693 188.636 3.56293 188.704 3.63493C188.776 3.70293 188.832 3.78493 188.872 3.88093C188.916 3.97293 188.938 4.07093 188.938 4.17493ZM194.533 8.45893C194.533 8.21093 194.497 7.98493 194.425 7.78093C194.357 7.57293 194.255 7.39493 194.119 7.24693C193.987 7.09493 193.825 6.97893 193.633 6.89893C193.441 6.81493 193.223 6.77293 192.979 6.77293C192.467 6.77293 192.061 6.92293 191.761 7.22293C191.465 7.51893 191.281 7.93093 191.209 8.45893H194.533ZM195.397 11.3089C195.265 11.4689 195.107 11.6089 194.923 11.7289C194.739 11.8449 194.541 11.9409 194.329 12.0169C194.121 12.0929 193.905 12.1489 193.681 12.1849C193.457 12.2249 193.235 12.2449 193.015 12.2449C192.595 12.2449 192.207 12.1749 191.851 12.0349C191.499 11.8909 191.193 11.6829 190.933 11.4109C190.677 11.1349 190.477 10.7949 190.333 10.3909C190.189 9.98693 190.117 9.52293 190.117 8.99893C190.117 8.57493 190.181 8.17893 190.309 7.81093C190.441 7.44293 190.629 7.12493 190.873 6.85693C191.117 6.58493 191.415 6.37293 191.767 6.22093C192.119 6.06493 192.515 5.98693 192.955 5.98693C193.319 5.98693 193.655 6.04893 193.963 6.17293C194.275 6.29293 194.543 6.46893 194.767 6.70093C194.995 6.92893 195.173 7.21293 195.301 7.55293C195.429 7.88893 195.493 8.27293 195.493 8.70493C195.493 8.87293 195.475 8.98493 195.439 9.04093C195.403 9.09693 195.335 9.12493 195.235 9.12493H191.173C191.185 9.50893 191.237 9.84293 191.329 10.1269C191.425 10.4109 191.557 10.6489 191.725 10.8409C191.893 11.0289 192.093 11.1709 192.325 11.2669C192.557 11.3589 192.817 11.4049 193.105 11.4049C193.373 11.4049 193.603 11.3749 193.795 11.3149C193.991 11.2509 194.159 11.1829 194.299 11.1109C194.439 11.0389 194.555 10.9729 194.647 10.9129C194.743 10.8489 194.825 10.8169 194.893 10.8169C194.981 10.8169 195.049 10.8509 195.097 10.9189L195.397 11.3089ZM205.128 6.08293L203.16 12.1609H202.314C202.21 12.1609 202.138 12.0929 202.098 11.9569L200.754 7.83493C200.722 7.74293 200.696 7.65093 200.676 7.55893C200.656 7.46293 200.636 7.36893 200.616 7.27693C200.596 7.36893 200.576 7.46293 200.556 7.55893C200.536 7.65093 200.51 7.74493 200.478 7.84093L199.11 11.9569C199.074 12.0929 198.994 12.1609 198.87 12.1609H198.066L196.098 6.08293H196.938C197.022 6.08293 197.092 6.10493 197.148 6.14893C197.208 6.19293 197.248 6.24493 197.268 6.30493L198.432 10.2169C198.5 10.5049 198.554 10.7769 198.594 11.0329C198.63 10.9009 198.666 10.7669 198.702 10.6309C198.742 10.4949 198.784 10.3569 198.828 10.2169L200.112 6.28093C200.132 6.22093 200.166 6.17093 200.214 6.13093C200.266 6.09093 200.328 6.07093 200.4 6.07093H200.868C200.948 6.07093 201.014 6.09093 201.066 6.13093C201.118 6.17093 201.154 6.22093 201.174 6.28093L202.428 10.2169C202.472 10.3569 202.512 10.4949 202.548 10.6309C202.584 10.7669 202.618 10.9009 202.65 11.0329C202.67 10.9009 202.694 10.7689 202.722 10.6369C202.754 10.5009 202.788 10.3609 202.824 10.2169L204.012 6.30493C204.032 6.24093 204.07 6.18893 204.126 6.14893C204.182 6.10493 204.248 6.08293 204.324 6.08293H205.128ZM209.661 7.08493C209.613 7.17293 209.539 7.21693 209.439 7.21693C209.379 7.21693 209.311 7.19493 209.235 7.15093C209.159 7.10693 209.065 7.05893 208.953 7.00693C208.845 6.95093 208.715 6.90093 208.563 6.85693C208.411 6.80893 208.231 6.78493 208.023 6.78493C207.843 6.78493 207.681 6.80893 207.537 6.85693C207.393 6.90093 207.269 6.96293 207.165 7.04293C207.065 7.12293 206.987 7.21693 206.931 7.32493C206.879 7.42893 206.853 7.54293 206.853 7.66693C206.853 7.82293 206.897 7.95293 206.985 8.05693C207.077 8.16093 207.197 8.25093 207.345 8.32693C207.493 8.40293 207.661 8.47093 207.849 8.53093C208.037 8.58693 208.229 8.64893 208.425 8.71693C208.625 8.78093 208.819 8.85293 209.007 8.93293C209.195 9.01293 209.363 9.11293 209.511 9.23293C209.659 9.35293 209.777 9.50093 209.865 9.67693C209.957 9.84893 210.003 10.0569 210.003 10.3009C210.003 10.5809 209.953 10.8409 209.853 11.0809C209.753 11.3169 209.605 11.5229 209.409 11.6989C209.213 11.8709 208.973 12.0069 208.689 12.1069C208.405 12.2069 208.077 12.2569 207.705 12.2569C207.281 12.2569 206.897 12.1889 206.553 12.0529C206.209 11.9129 205.917 11.7349 205.677 11.5189L205.929 11.1109C205.961 11.0589 205.999 11.0189 206.043 10.9909C206.087 10.9629 206.143 10.9489 206.211 10.9489C206.283 10.9489 206.359 10.9769 206.439 11.0329C206.519 11.0889 206.615 11.1509 206.727 11.2189C206.843 11.2869 206.983 11.3489 207.147 11.4049C207.311 11.4609 207.515 11.4889 207.759 11.4889C207.967 11.4889 208.149 11.4629 208.305 11.4109C208.461 11.3549 208.591 11.2809 208.695 11.1889C208.799 11.0969 208.875 10.9909 208.923 10.8709C208.975 10.7509 209.001 10.6229 209.001 10.4869C209.001 10.3189 208.955 10.1809 208.863 10.0729C208.775 9.96093 208.657 9.86693 208.509 9.79093C208.361 9.71093 208.191 9.64293 207.999 9.58693C207.811 9.52693 207.617 9.46493 207.417 9.40093C207.221 9.33693 207.027 9.26493 206.835 9.18493C206.647 9.10093 206.479 8.99693 206.331 8.87293C206.183 8.74893 206.063 8.59693 205.971 8.41693C205.883 8.23293 205.839 8.01093 205.839 7.75093C205.839 7.51893 205.887 7.29693 205.983 7.08493C206.079 6.86893 206.219 6.68093 206.403 6.52093C206.587 6.35693 206.813 6.22693 207.081 6.13093C207.349 6.03493 207.655 5.98693 207.999 5.98693C208.399 5.98693 208.757 6.05093 209.073 6.17893C209.393 6.30293 209.669 6.47493 209.901 6.69493L209.661 7.08493Z" fill="white"></path></svg>